<?xml version="1.0" encoding="UTF-8" standalone="no"?>
<!DOCTYPE svg PUBLIC "-//W3C//DTD SVG 1.1//EN" "http://www.w3.org/Graphics/SVG/1.1/DTD/svg11.dtd">
<!-- Generated by Microsoft Visio, SVG Export top-level.svg Page-1 -->
<svg xmlns="http://www.w3.org/2000/svg" xmlns:xlink="http://www.w3.org/1999/xlink" xmlns:ev="http://www.w3.org/2001/xml-events"
		xmlns:v="http://schemas.microsoft.com/visio/2003/SVGExtensions/" width="3.36936in" height="1.94346in"
		viewBox="0 0 242.594 139.929" xml:space="preserve" color-interpolation-filters="sRGB" class="st9">
	<v:documentProperties v:langID="1033" v:viewMarkup="false"/>

	<style type="text/css">
	<![CDATA[
		.st1 {fill:none;stroke:none;stroke-linecap:round;stroke-linejoin:round;stroke-width:0.5}
		.st2 {fill:#000000;font-family:Calibri;font-size:1.00001em}
		.st3 {stroke:#000000;stroke-linecap:round;stroke-linejoin:round;stroke-width:0.5}
		.st4 {fill:#ffffff;stroke:#000000;stroke-linecap:round;stroke-linejoin:round;stroke-width:0.75}
		.st5 {fill:#000000;font-family:Calibri;font-size:0.833336em}
		.st6 {marker-start:url(#mrkr3-31);stroke:#000000;stroke-linecap:round;stroke-linejoin:round;stroke-width:0.5}
		.st7 {fill:#000000;fill-opacity:1;stroke:#000000;stroke-opacity:1;stroke-width:0.21739130434783}
		.st8 {marker-end:url(#mrkr3-48);stroke:#000000;stroke-linecap:round;stroke-linejoin:round;stroke-width:0.5}
		.st9 {fill:none;fill-rule:evenodd;font-size:12px;overflow:visible;stroke-linecap:square;stroke-miterlimit:3}
	]]>
	</style>

	<defs id="Markers">
		<g id="lend3">
			<path d="M 2 1 L 0 0 L 2 -1 " style="stroke-linecap:round;stroke-linejoin:round;fill:none"/>
		</g>
		<marker id="mrkr3-31" class="st7" v:arrowType="3" v:arrowSize="1" orient="auto" markerUnits="strokeWidth"
				overflow="visible">
			<use xlink:href="#lend3" transform="scale(4.6) "/>
		</marker>
		<marker id="mrkr3-48" class="st7" v:arrowType="3" v:arrowSize="1" orient="auto" markerUnits="strokeWidth"
				overflow="visible">
			<use xlink:href="#lend3" transform="scale(-4.6,-4.6) "/>
		</marker>
	</defs>
	<g v:mID="0" v:index="1" v:groupContext="foregroundPage">
		<title>Page-1</title>
		<v:pageProperties v:drawingScale="1" v:pageScale="1" v:drawingUnits="19" v:shadowOffsetX="9" v:shadowOffsetY="-9"/>
		<g id="shape5-1" v:mID="5" v:groupContext="shape" transform="translate(91.0192,-59.9645)">
			<title>Sheet.5</title>
			<desc>PSQL</desc>
			<v:textBlock v:margins="rect(4,4,4,4)"/>
			<v:textRect cx="27" cy="129.929" width="54.01" height="20"/>
			<rect x="0" y="119.929" width="54" height="20" class="st1"/>
			<text x="14.58" y="133.53" class="st2" v:langID="1033"><v:paragraph v:horizAlign="1"/><v:tabList/>PSQL</text>		</g>
		<g id="shape7-4" v:mID="7" v:groupContext="shape" transform="translate(88.0904,-88.9872) rotate(19.44)">
			<title>Sheet.7</title>
			<path d="M0 139.93 L81.12 139.93" class="st3"/>
		</g>
		<g id="shape11-7" v:mID="11" v:groupContext="shape" transform="translate(-5.05196,-34.9872) rotate(-19.44)">
			<title>Sheet.11</title>
			<path d="M0 139.93 L81.12 139.93" class="st3"/>
		</g>
		<g id="shape13-10" v:mID="13" v:groupContext="shape" transform="translate(118.019,-69.9645)">
			<title>Sheet.13</title>
			<path d="M0 139.93 L81 139.93" class="st3"/>
		</g>
		<g id="group14-13" transform="translate(91.0192,-38.4645)" v:mID="14" v:groupContext="group">
			<title>Sheet.14</title>
			<desc>PSQL</desc>
			<g id="shape4-14" v:mID="4" v:groupContext="shape">
				<title>Sheet.4</title>
				<path d="M0 135.43 L0 135.43 A27 4.5 -180 1 0 54 135.43 L54 81.43 L0 81.43 L0 135.43 Z" class="st4"/>
			</g>
			<g id="shape1-16" v:mID="1" v:groupContext="shape" transform="translate(0,-54)">
				<title>Sheet.1</title>
				<ellipse cx="27" cy="135.429" rx="27" ry="4.5" class="st4"/>
			</g>
			<g id="shape14-18" v:mID="14" v:groupContext="groupContent">
				<v:textBlock v:margins="rect(4,4,4,4)"/>
				<v:textRect cx="27" cy="108.429" width="54.01" height="63"/>
				<text x="14.58" y="112.03" class="st2" v:langID="1033"><v:paragraph v:horizAlign="1"/><v:tabList/>PSQL</text>			</g>
		</g>
		<g id="shape81-20" v:mID="81" v:groupContext="shape" transform="translate(184.619,-55.5645)">
			<title>Sheet.81</title>
			<desc>hub</desc>
			<v:textBlock v:margins="rect(4,4,4,4)"/>
			<v:textRect cx="14.4" cy="125.529" width="28.8" height="28.8"/>
			<ellipse cx="14.4" cy="125.529" rx="14.4" ry="14.4" class="st4"/>
			<text x="6.52" y="128.53" class="st5" v:langID="1033"><v:paragraph v:horizAlign="1"/><v:tabList/>hub</text>		</g>
		<g id="shape82-23" v:mID="82" v:groupContext="shape" transform="translate(227.819,-62.7645)">
			<title>Sheet.82</title>
			<desc>C</desc>
			<v:textBlock v:margins="rect(4,4,4,4)"/>
			<v:textRect cx="7.2" cy="132.729" width="14.4" height="14.4"/>
			<ellipse cx="7.2" cy="132.729" rx="7.2" ry="7.2" class="st4"/>
			<text x="4.53" y="135.73" class="st5" v:langID="1033"><v:paragraph v:horizAlign="1"/><v:tabList/>C</text>		</g>
		<g id="shape83-26" v:mID="83" v:groupContext="shape" transform="translate(227.819,209.894) rotate(180)">
			<title>Sheet.83</title>
			<path d="M0 139.93 L14.4 139.93" class="st6"/>
		</g>
		<g id="shape84-32" v:mID="84" v:groupContext="shape" transform="translate(209.819,-31.588)">
			<title>Sheet.84</title>
			<desc>C</desc>
			<v:textBlock v:margins="rect(4,4,4,4)"/>
			<v:textRect cx="7.2" cy="132.729" width="14.4" height="14.4"/>
			<ellipse cx="7.2" cy="132.729" rx="7.2" ry="7.2" class="st4"/>
			<text x="4.53" y="135.73" class="st5" v:langID="1033"><v:paragraph v:horizAlign="1"/><v:tabList/>C</text>		</g>
		<g id="shape85-35" v:mID="85" v:groupContext="shape" transform="translate(92.2372,164.87) rotate(-120)">
			<title>Sheet.85</title>
			<path d="M0 139.93 L14.4 139.93" class="st6"/>
		</g>
		<g id="shape86-40" v:mID="86" v:groupContext="shape" transform="translate(209.819,-93.941)">
			<title>Sheet.86</title>
			<desc>P</desc>
			<v:textBlock v:margins="rect(4,4,4,4)"/>
			<v:textRect cx="7.2" cy="132.729" width="14.4" height="14.4"/>
			<ellipse cx="7.2" cy="132.729" rx="7.2" ry="7.2" class="st4"/>
			<text x="4.62" y="135.73" class="st5" v:langID="1033"><v:paragraph v:horizAlign="1"/><v:tabList/>P</text>		</g>
		<g id="shape87-43" v:mID="87" v:groupContext="shape" transform="translate(334.601,114.988) rotate(120)">
			<title>Sheet.87</title>
			<path d="M0 139.93 L14.4 139.93" class="st8"/>
		</g>
		<g id="shape58-49" v:mID="58" v:groupContext="shape" transform="translate(27.1227,-28.5649)">
			<title>Sheet.58</title>
			<desc>hub</desc>
			<v:textBlock v:margins="rect(4,4,4,4)"/>
			<v:textRect cx="14.4" cy="125.529" width="28.8" height="28.8"/>
			<ellipse cx="14.4" cy="125.529" rx="14.4" ry="14.4" class="st4"/>
			<text x="6.52" y="128.53" class="st5" v:langID="1033"><v:paragraph v:horizAlign="1"/><v:tabList/>hub</text>		</g>
		<g id="shape61-52" v:mID="61" v:groupContext="shape" transform="translate(0.375,-23.7834)">
			<title>Sheet.61</title>
			<desc>C</desc>
			<v:textBlock v:margins="rect(4,4,4,4)"/>
			<v:textRect cx="7.2" cy="132.729" width="14.4" height="14.4"/>
			<ellipse cx="7.2" cy="132.729" rx="7.2" ry="7.2" class="st4"/>
			<text x="4.53" y="135.73" class="st5" v:langID="1033"><v:paragraph v:horizAlign="1"/><v:tabList/>C</text>		</g>
		<g id="shape62-55" v:mID="62" v:groupContext="shape" transform="translate(-32.2066,-25.4024) rotate(-19.44)">
			<title>Sheet.62</title>
			<path d="M0 139.93 L14.4 139.93" class="st6"/>
		</g>
		<g id="shape69-60" v:mID="69" v:groupContext="shape" transform="translate(27.725,-0.375)">
			<title>Sheet.69</title>
			<desc>P</desc>
			<v:textBlock v:margins="rect(4,4,4,4)"/>
			<v:textRect cx="7.2" cy="132.729" width="14.4" height="14.4"/>
			<ellipse cx="7.2" cy="132.729" rx="7.2" ry="7.2" class="st4"/>
			<text x="4.62" y="135.73" class="st5" v:langID="1033"><v:paragraph v:horizAlign="1"/><v:tabList/>P</text>		</g>
		<g id="shape70-63" v:mID="70" v:groupContext="shape" transform="translate(-101.315,99.6318) rotate(-79.44)">
			<title>Sheet.70</title>
			<path d="M0 139.93 L14.4 139.93" class="st8"/>
		</g>
		<g id="shape89-68" v:mID="89" v:groupContext="shape" transform="translate(27.1227,-82.5642)">
			<title>Sheet.89</title>
			<desc>hub</desc>
			<v:textBlock v:margins="rect(4,4,4,4)"/>
			<v:textRect cx="14.4" cy="125.529" width="28.8" height="28.8"/>
			<ellipse cx="14.4" cy="125.529" rx="14.4" ry="14.4" class="st4"/>
			<text x="6.52" y="128.53" class="st5" v:langID="1033"><v:paragraph v:horizAlign="1"/><v:tabList/>hub</text>		</g>
		<g id="shape90-71" v:mID="90" v:groupContext="shape" transform="translate(0.375,-101.746)">
			<title>Sheet.90</title>
			<desc>P</desc>
			<v:textBlock v:margins="rect(4,4,4,4)"/>
			<v:textRect cx="7.2" cy="132.729" width="14.4" height="14.4"/>
			<ellipse cx="7.2" cy="132.729" rx="7.2" ry="7.2" class="st4"/>
			<text x="4.62" y="135.73" class="st5" v:langID="1033"><v:paragraph v:horizAlign="1"/><v:tabList/>P</text>		</g>
		<g id="shape91-74" v:mID="91" v:groupContext="shape" transform="translate(60.9356,-98.5721) rotate(19.44)">
			<title>Sheet.91</title>
			<path d="M0 139.93 L14.4 139.93" class="st8"/>
		</g>
		<g id="shape92-79" v:mID="92" v:groupContext="shape" transform="translate(27.725,-125.154)">
			<title>Sheet.92</title>
			<desc>C</desc>
			<v:textBlock v:margins="rect(4,4,4,4)"/>
			<v:textRect cx="7.2" cy="132.729" width="14.4" height="14.4"/>
			<ellipse cx="7.2" cy="132.729" rx="7.2" ry="7.2" class="st4"/>
			<text x="4.53" y="135.73" class="st5" v:langID="1033"><v:paragraph v:horizAlign="1"/><v:tabList/>C</text>		</g>
		<g id="shape93-82" v:mID="93" v:groupContext="shape" transform="translate(173.804,-10.991) rotate(79.44)">
			<title>Sheet.93</title>
			<path d="M0 139.93 L14.4 139.93" class="st6"/>
		</g>
		<g id="shape94-87" v:mID="94" v:groupContext="shape" transform="translate(6.9727,-66.3558)">
			<title>Sheet.94</title>
			<desc>P</desc>
			<v:textBlock v:margins="rect(4,4,4,4)"/>
			<v:textRect cx="7.2" cy="132.729" width="14.4" height="14.4"/>
			<ellipse cx="7.2" cy="132.729" rx="7.2" ry="7.2" class="st4"/>
			<text x="4.62" y="135.73" class="st5" v:langID="1033"><v:paragraph v:horizAlign="1"/><v:tabList/>P</text>		</g>
		<g id="shape95-90" v:mID="95" v:groupContext="shape" transform="translate(-71.3453,-44.6162) rotate(-40.56)">
			<title>Sheet.95</title>
			<path d="M0 139.93 L14.4 139.93" class="st8"/>
		</g>
	</g>
</svg>
